<?xml version="1.0" encoding="iso-8859-1"?>
<!-- Generator: Adobe Illustrator 16.0.0, SVG Export Plug-In . SVG Version: 6.00 Build 0)  -->
<!DOCTYPE svg PUBLIC "-//W3C//DTD SVG 1.1//EN" "http://www.w3.org/Graphics/SVG/1.1/DTD/svg11.dtd">
<svg version="1.1" id="Capa_1" xmlns="http://www.w3.org/2000/svg" xmlns:xlink="http://www.w3.org/1999/xlink" x="0px" y="0px"
	 width="241.893px" height="241.893px" viewBox="0 0 241.893 241.893" style="enable-background:new 0 0 241.893 241.893;"
	 xml:space="preserve">
<g>
	<g>
		<circle cx="194.418" cy="91.586" r="2.241"/>
		<circle cx="45.69" cy="91.586" r="2.241"/>
		<path d="M239.205,37.833c1.48,0,2.688-1.205,2.688-2.688v-5.375c0-1.485-1.207-2.688-2.688-2.688H2.688
			C1.205,27.082,0,28.284,0,29.769v5.371c0,1.483,1.205,2.688,2.688,2.688c6.918,0.005,12.546,5.633,12.546,12.546
			c0,6.912-5.627,12.536-12.546,12.541C1.205,62.914,0,64.116,0,65.602v8.068c0,1.483,1.205,2.688,2.688,2.688
			c6.918,0,12.546,5.627,12.546,12.546c0,6.912-5.627,12.535-12.546,12.535c-1.483,0-2.688,1.203-2.688,2.688v8.068
			c0,1.483,1.205,2.688,2.688,2.688c6.918,0.005,12.546,5.627,12.546,12.541S9.606,139.965,2.688,139.97
			c-1.483,0-2.688,1.202-2.688,2.688v5.376c0,1.485,1.205,2.688,2.688,2.688h24.36l2.8,5.822c0.651,1.343,2.276,1.9,3.585,1.26
			c5.072-2.437,11.177-0.283,13.602,4.788c2.433,5.069,0.289,11.17-4.79,13.605c-0.641,0.31-1.134,0.86-1.37,1.532
			c-0.236,0.673-0.194,1.418,0.113,2.06l2.96,6.151c0.646,1.344,2.263,1.899,3.58,1.26c5.069-2.436,11.176-0.283,13.602,4.787
			c2.428,5.061,0.284,11.171-4.79,13.607c-1.333,0.641-1.903,2.246-1.257,3.584l1.966,4.105c0.462,0.961,1.431,1.527,2.426,1.527
			c0.391,0,0.784-0.083,1.16-0.263l133.097-63.827h34.267H239.2c1.485,0,2.688-1.202,2.688-2.688v-5.376
			c0-1.485-1.202-2.688-2.688-2.688c-6.913,0-12.536-5.622-12.536-12.541c0-6.918,5.623-12.54,12.536-12.54
			c1.485,0,2.688-1.204,2.688-2.688v-8.068c0-1.486-1.202-2.688-2.688-2.688c-6.913,0-12.536-5.624-12.536-12.541
			c0-6.918,5.623-12.546,12.536-12.546c1.485,0,2.688-1.205,2.688-2.688v-8.063c0-1.486-1.202-2.688-2.688-2.688
			c-6.913,0-12.536-5.629-12.536-12.546C226.67,43.46,232.292,37.833,239.205,37.833z M78.056,181.666l-15.787-30.945h53.795
			l-35.693,13.371c-1.386,0.52-2.095,2.067-1.57,3.459c0.405,1.081,1.431,1.748,2.518,1.748c0.317,0,0.63-0.052,0.945-0.174
			l49.129-18.399h14.551L78.056,181.666z M211.437,127.424c0,1.485-1.208,2.688-2.688,2.688H33.15c-1.483,0-2.688-1.202-2.688-2.688
			v-77.04c0-1.486,1.205-2.688,2.688-2.688h175.598c1.48,0,2.688,1.202,2.688,2.688V127.424z"/>
		<path d="M35.838,124.736h170.223V53.071H35.838V124.736z M175.851,77.62v22.564h4.636v3.431h-13.522v-3.431h4.628V77.62h-7.154
			V82.5h-3.862v-8.315h26.289V82.5h-3.922V77.62H175.851z M194.418,83.97c4.199,0,7.61,3.412,7.61,7.611
			c0,4.203-3.411,7.622-7.61,7.622c-4.206,0-7.624-3.419-7.624-7.622C186.794,87.382,190.212,83.97,194.418,83.97z M40.767,60.231
			h158.575c1.48,0,2.687,1.202,2.687,2.688c0,1.484-1.206,2.688-2.687,2.688H40.767c-1.483,0-2.688-1.204-2.688-2.688
			C38.079,61.434,39.284,60.231,40.767,60.231z M133.378,77.62v-3.436h23.821v8.263h-3.916V77.62h-11.307v9.47h12.172v3.437h-12.172
			v9.664h11.4v-4.976h3.958v8.401h-23.968v-3.431h4.355V77.62H133.378z M100.708,77.62v-3.436h12.803v3.436h-4.202v22.564h4.591
			v3.431h-13.192v-3.431h4.349V77.62H100.708z M111.232,89.027v-0.291l10.68-11.166h-3.816v-3.386h12.374v3.436h-3.717
			l-10.396,11.019l10.1,11.546h4.444v3.431h-7.056L111.232,89.027z M97.03,100.185v3.431h-12.9v-3.431h4.349V77.62H84.13v-3.436
			h12.9v3.436h-4.305v22.564H97.03L97.03,100.185z M70.297,77.62v22.564h4.641v3.431h-13.53v-3.431h4.632V77.62h-7.147V82.5h-3.866
			v-8.315h26.286V82.5H77.4V77.62H70.297z M45.69,83.97c4.203,0,7.623,3.412,7.623,7.611c0,4.203-3.42,7.622-7.623,7.622
			c-4.199,0-7.611-3.419-7.611-7.622C38.079,87.382,41.491,83.97,45.69,83.97z M40.767,112.642h158.575
			c1.48,0,2.687,1.202,2.687,2.688c0,1.483-1.206,2.688-2.687,2.688H40.767c-1.483,0-2.688-1.205-2.688-2.688
			C38.079,113.844,39.284,112.642,40.767,112.642z"/>
	</g>
</g>
<g>
</g>
<g>
</g>
<g>
</g>
<g>
</g>
<g>
</g>
<g>
</g>
<g>
</g>
<g>
</g>
<g>
</g>
<g>
</g>
<g>
</g>
<g>
</g>
<g>
</g>
<g>
</g>
<g>
</g>
</svg>
